{"accessors":[{"bufferView":0,"componentType":5126,"count":495,"max":[0.75,2.69312977790833,0.100000008940697],"min":[-0.75,2.56580376625061,-0.0999999940395355],"normalized":false,"type":"VEC3"},{"bufferView":1,"componentType":5126,"count":495,"max":[1.0,0.0,0.994872272014618,1.0],"min":[-0.00112163543235511,-0.101132899522781,-0.999476909637451,-1.0],"normalized":false,"type":"VEC4"},{"bufferView":2,"componentType":5126,"count":495,"max":[1.0,1.0,1.0],"min":[-1.0,-1.0,-1.0],"normalized":false,"type":"VEC3"},{"bufferView":3,"componentType":5126,"count":495,"max":[0.867789387702942,0.623065829277039],"min":[0.837938785552979,0.519640266895294],"normalized":false,"type":"VEC2"},{"bufferView":4,"componentType":5123,"count":816,"max":[461.0],"min":[0.0],"normalized":false,"type":"SCALAR"},{"bufferView":5,"componentType":5126,"count":48,"max":[0.69389683008194,2.61983871459961,0.0480126552283764],"min":[-0.69389683008194,2.59416198730469,-0.0480126477777958],"normalized":false,"type":"VEC3"},{"bufferView":6,"componentType":5126,"count":48,"max":[1.0,0.0,-0.0000152590218931437,1.0],"min":[1.0,0.0,-0.0000457784626632929,-1.0],"normalized":false,"type":"VEC4"},{"bufferView":7,"componentType":5126,"count":48,"max":[0.0,1.0,0.866026937961578],"min":[-0.0000208445126190782,-1.0,-0.866017937660217],"normalized":false,"type":"VEC3"},{"bufferView":8,"componentType":5126,"count":48,"max":[1.0,0.017346978187561],"min":[-0.0000000894069671630859,0.0173468589782715],"normalized":false,"type":"VEC2"},{"bufferView":9,"componentType":5123,"count":72,"max":[47.0],"min":[0.0],"normalized":false,"type":"SCALAR"},{"bufferView":10,"componentType":5126,"count":80,"max":[0.687587201595306,3.0,0.0128200193867087],"min":[-0.687587201595306,2.69312977790833,-0.012820016592741],"normalized":false,"type":"VEC3"},{"bufferView":11,"componentType":5126,"count":80,"max":[1.0,0.0,-0.0000152590218931437,1.0],"min":[1.0,0.0,-0.0000457784626632929,-1.0],"normalized":false,"type":"VEC4"},{"bufferView":12,"componentType":5126,"count":80,"max":[0.965558350086212,1.0,0.965569019317627],"min":[-0.965570271015167,-1.0,-0.965552389621735],"normalized":false,"type":"VEC3"},{"bufferView":13,"componentType":5126,"count":80,"max":[0.855836033821106,0.524421691894531],"min":[0.855836033821106,0.524421691894531],"normalized":false,"type":"VEC2"},{"bufferView":14,"componentType":5123,"count":120,"max":[79.0],"min":[0.0],"normalized":false,"type":"SCALAR"}],"asset":{"generator":"Godot Engine v4.5.stable.official@876b290332ec6f2e6d173d08162a02aa7e6ca46d","version":"2.0"},"bufferViews":[{"buffer":0,"byteLength":5940,"byteStride":12,"target":34962},{"buffer":0,"byteLength":7920,"byteOffset":5940,"byteStride":16,"target":34962},{"buffer":0,"byteLength":5940,"byteOffset":13860,"byteStride":12,"target":34962},{"buffer":0,"byteLength":3960,"byteOffset":19800,"byteStride":8,"target":34962},{"buffer":0,"byteLength":1632,"byteOffset":23760,"target":34963},{"buffer":0,"byteLength":576,"byteOffset":25392,"byteStride":12,"target":34962},{"buffer":0,"byteLength":768,"byteOffset":25968,"byteStride":16,"target":34962},{"buffer":0,"byteLength":576,"byteOffset":26736,"byteStride":12,"target":34962},{"buffer":0,"byteLength":384,"byteOffset":27312,"byteStride":8,"target":34962},{"buffer":0,"byteLength":144,"byteOffset":27696,"target":34963},{"buffer":0,"byteLength":960,"byteOffset":27840,"byteStride":12,"target":34962},{"buffer":0,"byteLength":1280,"byteOffset":28800,"byteStride":16,"target":34962},{"buffer":0,"byteLength":960,"byteOffset":30080,"byteStride":12,"target":34962},{"buffer":0,"byteLength":640,"byteOffset":31040,"byteStride":8,"target":34962},{"buffer":0,"byteLength":240,"byteOffset":31680,"target":34963}],"buffers":[{"byteLength":31920,"uri":"SM_Light_B.prefab0.bin"}],"extensions":{"OMI_physics_shape":{"shapes":[{"box":{"size":[1.5,0.127326011657715,0.200000002980232]},"type":"box"}]}},"extensionsUsed":["GODOT_single_root","KHR_materials_emissive_strength","OMI_physics_body","OMI_physics_shape"],"images":[{"uri":"textures%2FMain%20Texture_albedo.png"}],"materials":[{"extensions":{},"name":"Main Texture","pbrMetallicRoughness":{"baseColorFactor":[1.0,1.0,1.0,1.0],"baseColorTexture":{"index":0},"metallicFactor":0.0,"roughnessFactor":1.0}},{"emissiveFactor":[1.0,0.880662798881531,0.712545335292816],"extensions":{"KHR_materials_emissive_strength":{"emissiveStrength":0.783018887042999}},"name":"Light","pbrMetallicRoughness":{"baseColorFactor":[1.0,1.0,1.0,0.474509805440903],"metallicFactor":0.0,"roughnessFactor":0.360000014305115}}],"meshes":[{"primitives":[{"attributes":{"NORMAL":2,"POSITION":0,"TANGENT":1,"TEXCOORD_0":3},"indices":4,"material":0,"mode":4},{"attributes":{"NORMAL":7,"POSITION":5,"TANGENT":6,"TEXCOORD_0":8},"indices":9,"material":1,"mode":4}]},{"primitives":[{"attributes":{"NORMAL":12,"POSITION":10,"TANGENT":11,"TEXCOORD_0":13},"indices":14,"material":0,"mode":4}]}],"nodes":[{"children":[1,2,4],"name":"SM_Light_B"},{"mesh":0,"name":"MeshRenderer"},{"children":[3],"extensions":{"OMI_physics_body":{"motion":{"type":"static"}}},"name":"BoxCollider"},{"extensions":{"OMI_physics_body":{"collider":{"shape":0}}},"name":"CollisionShape3D","translation":[0.0,2.62946677207947,0.00000000745058059692383]},{"children":[5],"name":"SM_Light_Fastening"},{"mesh":1,"name":"MeshRenderer2"}],"samplers":[{"magFilter":9729,"minFilter":9987,"wrapS":10497,"wrapT":10497}],"scene":0,"scenes":[{"nodes":[0]}],"textures":[{"sampler":0,"source":0}]}