{"asset":{"version":"2.0","generator":"Blockbench 4.9.4 glTF exporter"},"scenes":[{"nodes":[11],"name":"blockbench_export"}],"scene":0,"nodes":[{"name":"bone"},{"translation":[0.4375,-0.8125,0.0625],"name":"door","mesh":0},{"translation":[0.4375,-0.8125,0.0625],"name":"hinge2","mesh":1},{"translation":[0.4375,-0.8125,0.0625],"name":"hinge1","mesh":2},{"name":"handle1","mesh":3},{"name":"handle2","mesh":4},{"rotation":[-0.3826834323650898,0,0,0.9238795325112867],"translation":[0.4375,-0.03125,0.1875],"name":"rod","mesh":5},{"name":"crashdoorhandle","children":[4,5,6]},{"translation":[-0.4375,0.8125,-0.0625],"name":"hinges","children":[1,2,3,7]},{"name":"frame","mesh":6},{"name":"root","children":[0,8,9]},{"children":[10]}],"bufferViews":[{"buffer":0,"byteOffset":0,"byteLength":288,"target":34962,"byteStride":12},{"buffer":0,"byteOffset":288,"byteLength":288,"target":34962,"byteStride":12},{"buffer":0,"byteOffset":576,"byteLength":192,"target":34962,"byteStride":8},{"buffer":0,"byteOffset":768,"byteLength":72,"target":34963},{"buffer":0,"byteOffset":840,"byteLength":288,"target":34962,"byteStride":12},{"buffer":0,"byteOffset":1128,"byteLength":288,"target":34962,"byteStride":12},{"buffer":0,"byteOffset":1416,"byteLength":192,"target":34962,"byteStride":8},{"buffer":0,"byteOffset":1608,"byteLength":72,"target":34963},{"buffer":0,"byteOffset":1680,"byteLength":288,"target":34962,"byteStride":12},{"buffer":0,"byteOffset":1968,"byteLength":288,"target":34962,"byteStride":12},{"buffer":0,"byteOffset":2256,"byteLength":192,"target":34962,"byteStride":8},{"buffer":0,"byteOffset":2448,"byteLength":72,"target":34963},{"buffer":0,"byteOffset":2520,"byteLength":600,"target":34962,"byteStride":12},{"buffer":0,"byteOffset":3120,"byteLength":600,"target":34962,"byteStride":12},{"buffer":0,"byteOffset":3720,"byteLength":400,"target":34962,"byteStride":8},{"buffer":0,"byteOffset":4120,"byteLength":144,"target":34963},{"buffer":0,"byteOffset":4264,"byteLength":600,"target":34962,"byteStride":12},{"buffer":0,"byteOffset":4864,"byteLength":600,"target":34962,"byteStride":12},{"buffer":0,"byteOffset":5464,"byteLength":400,"target":34962,"byteStride":8},{"buffer":0,"byteOffset":5864,"byteLength":144,"target":34963},{"buffer":0,"byteOffset":6008,"byteLength":288,"target":34962,"byteStride":12},{"buffer":0,"byteOffset":6296,"byteLength":288,"target":34962,"byteStride":12},{"buffer":0,"byteOffset":6584,"byteLength":192,"target":34962,"byteStride":8},{"buffer":0,"byteOffset":6776,"byteLength":72,"target":34963},{"buffer":0,"byteOffset":6848,"byteLength":1056,"target":34962,"byteStride":12},{"buffer":0,"byteOffset":7904,"byteLength":1056,"target":34962,"byteStride":12},{"buffer":0,"byteOffset":8960,"byteLength":704,"target":34962,"byteStride":8},{"buffer":0,"byteOffset":9664,"byteLength":264,"target":34963}],"buffers":[{"byteLength":9928,"uri":"data:application/octet-stream;base64,"}],"accessors":[{"bufferView":0,"componentType":5126,"count":24,"max":[0.4375,1.625,0.05000000074505806],"min":[-0.4375,0,-0.05000000074505806],"type":"VEC3"},{"bufferView":1,"componentType":5126,"count":24,"max":[1,1,1],"min":[-1,-1,-1],"type":"VEC3"},{"bufferView":2,"componentType":5126,"count":24,"max":[0.21875,0.84375],"min":[0,0],"type":"VEC2"},{"bufferView":3,"componentType":5123,"count":36,"max":[23],"min":[0],"type":"SCALAR"},{"bufferView":4,"componentType":5126,"count":24,"max":[-0.421875,1.328125,-0.046875],"min":[-0.453125,1.171875,-0.078125],"type":"VEC3"},{"bufferView":5,"componentType":5126,"count":24,"max":[1,1,1],"min":[-1,-1,-1],"type":"VEC3"},{"bufferView":6,"componentType":5126,"count":24,"max":[0.34375,0.125],"min":[0.328125,0.078125],"type":"VEC2"},{"bufferView":7,"componentType":5123,"count":36,"max":[23],"min":[0],"type":"SCALAR"},{"bufferView":8,"componentType":5126,"count":24,"max":[-0.421875,0.390625,-0.046875],"min":[-0.453125,0.234375,-0.078125],"type":"VEC3"},{"bufferView":9,"componentType":5126,"count":24,"max":[1,1,1],"min":[-1,-1,-1],"type":"VEC3"},{"bufferView":10,"componentType":5126,"count":24,"max":[0.34375,0.125],"min":[0.328125,0.078125],"type":"VEC2"},{"bufferView":11,"componentType":5123,"count":36,"max":[23],"min":[0],"type":"SCALAR"},{"bufferView":12,"componentType":5126,"count":50,"max":[0.1875,0.125,0.234375],"min":[0.0625,-0.125,0.125],"type":"VEC3"},{"bufferView":13,"componentType":5126,"count":50,"max":[1,1,1],"min":[-1,-1,-1],"type":"VEC3"},{"bufferView":14,"componentType":5126,"count":50,"max":[0.390625,0.140625],"min":[0.359375,0.078125],"type":"VEC2"},{"bufferView":15,"componentType":5123,"count":72,"max":[49],"min":[0],"type":"SCALAR"},{"bufferView":16,"componentType":5126,"count":50,"max":[0.8125,0.125,0.234375],"min":[0.6875,-0.125,0.125],"type":"VEC3"},{"bufferView":17,"componentType":5126,"count":50,"max":[1,1,1],"min":[-1,-1,-1],"type":"VEC3"},{"bufferView":18,"componentType":5126,"count":50,"max":[0.390625,0.140625],"min":[0.359375,0.078125],"type":"VEC2"},{"bufferView":19,"componentType":5123,"count":72,"max":[49],"min":[0],"type":"SCALAR"},{"bufferView":20,"componentType":5126,"count":24,"max":[0.3125,0.015625,0.015625],"min":[-0.3125,-0.015625,-0.015625],"type":"VEC3"},{"bufferView":21,"componentType":5126,"count":24,"max":[1,1,1],"min":[-1,-1,-1],"type":"VEC3"},{"bufferView":22,"componentType":5126,"count":24,"max":[0.46875,0.171875],"min":[0.3125,0.15625],"type":"VEC2"},{"bufferView":23,"componentType":5123,"count":36,"max":[23],"min":[0],"type":"SCALAR"},{"bufferView":24,"componentType":5126,"count":88,"max":[0.5,1.6875,0.0625],"min":[-0.5,0,-0.0625],"type":"VEC3"},{"bufferView":25,"componentType":5126,"count":88,"max":[1,1,1],"min":[-1,-1,-1],"type":"VEC3"},{"bufferView":26,"componentType":5126,"count":88,"max":[0.515625,0.421875],"min":[0.265625,0],"type":"VEC2"},{"bufferView":27,"componentType":5123,"count":132,"max":[87],"min":[0],"type":"SCALAR"}],"materials":[{"pbrMetallicRoughness":{"metallicFactor":0,"roughnessFactor":1,"baseColorTexture":{"index":0}},"alphaMode":"MASK","alphaCutoff":0.05,"doubleSided":true}],"textures":[{"sampler":0,"source":0}],"samplers":[{"magFilter":9728,"minFilter":9728,"wrapS":33071,"wrapT":33071}],"images":[{"mimeType":"image/png","uri":"data:image/png;base64,"}],"meshes":[{"primitives":[{"mode":4,"attributes":{"POSITION":0,"NORMAL":1,"TEXCOORD_0":2},"indices":3,"material":0}]},{"primitives":[{"mode":4,"attributes":{"POSITION":4,"NORMAL":5,"TEXCOORD_0":6},"indices":7,"material":0}]},{"primitives":[{"mode":4,"attributes":{"POSITION":8,"NORMAL":9,"TEXCOORD_0":10},"indices":11,"material":0}]},{"primitives":[{"mode":4,"attributes":{"POSITION":12,"NORMAL":13,"TEXCOORD_0":14},"indices":15,"material":0}]},{"primitives":[{"mode":4,"attributes":{"POSITION":16,"NORMAL":17,"TEXCOORD_0":18},"indices":19,"material":0}]},{"primitives":[{"mode":4,"attributes":{"POSITION":20,"NORMAL":21,"TEXCOORD_0":22},"indices":23,"material":0}]},{"primitives":[{"mode":4,"attributes":{"POSITION":24,"NORMAL":25,"TEXCOORD_0":26},"indices":27,"material":0}]}]}